<svg width="398" height="329" viewBox="0 0 398 329" fill="none" xmlns="http://www.w3.org/2000/svg">
<g clip-path="url(#clip0_193_43)">
<path d="M420.556 288.823H-20.5555V289.044H420.556V288.823Z" fill="#EBEBEB"/>
<path d="M376.356 303.015H347.137V303.236H376.356V303.015Z" fill="#EBEBEB"/>
<path d="M271.654 305.414H263.988V305.635H271.654V305.414Z" fill="#EBEBEB"/>
<path d="M346.255 294.83H304.199V295.05H346.255V294.83Z" fill="#EBEBEB"/>
<path d="M46.6169 296.312H25.7258V296.532H46.6169V296.312Z" fill="#EBEBEB"/>
<path d="M77.2741 296.312H54.4686V296.532H77.2741V296.312Z" fill="#EBEBEB"/>
<path d="M152.457 300.034H95.4302V300.254H152.457V300.034Z" fill="#EBEBEB"/>
<path d="M188.54 249.484H18.1829C15.4039 249.484 13.1454 247.226 13.1454 244.448V5.03643C13.1454 2.25802 15.4039 0 18.1829 0H188.54C191.319 0 193.577 2.25802 193.577 5.03643V244.448C193.577 247.226 191.319 249.484 188.54 249.484ZM18.1829 0.220509C15.5274 0.220509 13.3659 2.3815 13.3659 5.03643V244.448C13.3659 247.103 15.5274 249.264 18.1829 249.264H188.54C191.195 249.264 193.357 247.103 193.357 244.448V5.03643C193.357 2.3815 191.195 0.220509 188.54 0.220509H18.1829Z" fill="#EBEBEB"/>
<path d="M379.365 249.484H209.007C206.228 249.484 203.97 247.226 203.97 244.448V5.03643C203.97 2.25802 206.228 0 209.007 0H379.365C382.144 0 384.402 2.25802 384.402 5.03643V244.448C384.402 247.226 382.144 249.484 379.365 249.484ZM209.007 0.220509C206.352 0.220509 204.191 2.3815 204.191 5.03643V244.448C204.191 247.103 206.352 249.264 209.007 249.264H379.365C382.02 249.264 384.182 247.103 384.182 244.448V5.03643C384.182 2.3815 382.02 0.220509 379.365 0.220509H209.007Z" fill="#EBEBEB"/>
<path d="M368.866 22.9771H229.501V288.823H368.866V22.9771Z" fill="#EBEBEB"/>
<path d="M358.5 31.6475H239.868V288.823H358.5V31.6475Z" fill="#F5F5F5"/>
<path d="M315.871 52.9752H282.514V62.1925H315.871V52.9752Z" fill="white"/>
<path d="M330.895 144.531H348.99C350.551 144.531 351.813 145.792 351.813 147.353C351.813 148.914 350.551 150.176 348.99 150.176H330.895C329.334 150.176 328.072 148.914 328.072 147.353C328.072 145.792 329.334 144.531 330.895 144.531Z" fill="white"/>
<path d="M134.222 51.264H41.5353V125.946H134.222V51.264Z" fill="#EBEBEB"/>
<path d="M129.246 120.971V56.2386L46.511 56.2386V120.971H129.246Z" fill="#FAFAFA"/>
<path d="M119.594 89.4562V86.3602H56.1538V89.4562H119.594Z" fill="#E0E0E0"/>
<path d="M119.585 96.4949V93.3989H56.1448V96.4949H119.585Z" fill="#E0E0E0"/>
<path d="M119.594 103.542V100.446H56.1538V103.542H119.594Z" fill="#E0E0E0"/>
<path d="M103.688 110.59V107.494H72.0602V110.59H103.688Z" fill="#E0E0E0"/>
<path d="M56.1537 56.2387C56.1537 61.5662 51.8396 65.8793 46.511 65.8793C44.6936 65.8793 42.9909 65.3766 41.5441 64.4945V51.264H54.7862C55.6596 52.7193 56.1625 54.4129 56.1625 56.2298L56.1537 56.2387Z" fill="#EBEBEB"/>
<path d="M134.222 51.264V64.4945C132.766 65.3678 131.072 65.8793 129.255 65.8793C123.926 65.8793 119.603 61.5662 119.603 56.2387C119.603 54.4217 120.106 52.7193 120.988 51.2728H134.23L134.222 51.264Z" fill="#EBEBEB"/>
<path d="M56.1537 120.98C56.1537 122.797 55.6597 124.5 54.7774 125.946H41.5353V112.707C42.9909 111.833 44.6848 111.322 46.5022 111.322C51.8308 111.322 56.1449 115.644 56.1449 120.971L56.1537 120.98Z" fill="#EBEBEB"/>
<path d="M134.222 112.707V125.946H120.979C120.106 124.491 119.594 122.797 119.594 120.98C119.594 115.653 123.917 111.331 129.246 111.331C131.063 111.331 132.766 111.833 134.213 112.715L134.222 112.707Z" fill="#EBEBEB"/>
<path d="M95.9846 73.3227C96.7114 68.8461 93.6708 64.628 89.1933 63.9013C84.7157 63.1747 80.4967 66.2146 79.7699 70.6913C79.0431 75.1679 82.0837 79.386 86.5612 80.1127C91.0388 80.8393 95.2578 77.7994 95.9846 73.3227Z" fill="#E0E0E0"/>
<path d="M209.122 182.758H25.7258V189.356H209.122V182.758Z" fill="#EBEBEB"/>
<path d="M207.534 189.356H147.949V288.823H207.534V189.356Z" fill="#F5F5F5"/>
<path d="M87.5785 189.356H27.9932V288.823H87.5785V189.356Z" fill="#F5F5F5"/>
<path d="M30.0311 189.356H27.9932V288.823H30.0311V189.356Z" fill="#EBEBEB"/>
<path d="M149.987 189.356H147.949V288.823H149.987V189.356Z" fill="#EBEBEB"/>
<path d="M59.2856 166.855H48.3284L49.2106 182.758H58.4033L59.2856 166.855Z" fill="#F0F0F0"/>
<path d="M154.416 175.861H97.1682V182.758H154.416V175.861Z" fill="#F0F0F0"/>
<path d="M154.425 176.672H128.029V181.956H154.425V176.672Z" fill="#FAFAFA"/>
<g filter="url(#filter0_f_193_43)">
<path d="M200 328.656C294.471 328.656 371.054 324.186 371.054 318.671C371.054 313.157 294.471 308.687 200 308.687C105.529 308.687 28.9459 313.157 28.9459 318.671C28.9459 324.186 105.529 328.656 200 328.656Z" fill="#F5F5F5"/>
</g>
<path d="M280.026 256.911C295.462 256.911 307.975 244.401 307.975 228.968C307.975 213.536 295.462 201.025 280.026 201.025C264.591 201.025 252.078 213.536 252.078 228.968C252.078 244.401 264.591 256.911 280.026 256.911Z" fill="white"/>
<path d="M280.026 257.255C264.429 257.255 251.734 244.563 251.734 228.968C251.734 213.374 264.429 200.681 280.026 200.681C295.624 200.681 308.319 213.365 308.319 228.968C308.319 244.571 295.624 257.255 280.026 257.255ZM280.026 201.378C264.808 201.378 252.422 213.762 252.422 228.977C252.422 244.192 264.808 256.576 280.026 256.576C295.245 256.576 307.631 244.192 307.631 228.977C307.631 213.762 295.245 201.378 280.026 201.378Z" fill="#147F82"/>
<path d="M284.526 213.127H275.527V244.809H284.526V213.127Z" fill="#147F82"/>
<path d="M295.871 233.467V224.47H264.182V233.467H295.871Z" fill="#147F82"/>
<path d="M90.7015 17.7466L90.0928 17.1027C94.2216 13.2217 99.3473 10.752 104.923 9.95819L105.046 10.8314C99.6561 11.5988 94.6892 13.9891 90.7015 17.7466Z" fill="#147F82"/>
<path d="M84.173 27.3873L83.3525 27.0697C84.2259 24.8293 85.3993 22.7125 86.8373 20.772L87.5431 21.3012C86.1492 23.1799 85.0199 25.2263 84.173 27.3961V27.3873Z" fill="#147F82"/>
<path d="M108.787 61.1781C122.157 61.1781 132.995 50.342 132.995 36.975C132.995 23.608 122.157 12.7719 108.787 12.7719C95.4172 12.7719 84.5789 23.608 84.5789 36.975C84.5789 50.342 95.4172 61.1781 108.787 61.1781Z" fill="#147F82"/>
<path d="M123.22 26.073C119.285 21.9892 112.783 21.9451 108.787 25.9407C104.791 21.9451 98.2974 21.998 94.3538 26.073C90.4897 30.0774 90.7897 36.534 94.7244 40.4678L106.167 51.9079C107.614 53.3544 109.96 53.3544 111.398 51.9079L122.841 40.4678C126.775 36.534 127.075 30.0774 123.211 26.073H123.22Z" fill="white"/>
<path d="M108.787 47.5506C108.787 47.5506 108.769 47.5506 108.752 47.5506C108.39 47.5418 108.064 47.3036 107.949 46.9508L102.841 32.0179L100.706 38.2628C100.582 38.6244 100.247 38.8625 99.8677 38.8625H91.319C90.8338 38.8625 90.4368 38.4656 90.4368 37.9805C90.4368 37.4954 90.8338 37.0985 91.319 37.0985H99.2413L102.012 29.0102C102.135 28.6486 102.47 28.4104 102.85 28.4104C103.229 28.4104 103.564 28.6486 103.688 29.0102L108.884 44.1989L113.93 32.3178C114.063 32.0091 114.363 31.7974 114.698 31.7798C115.033 31.7533 115.351 31.9386 115.518 32.2296L118.236 37.0897H126.273C126.758 37.0897 127.155 37.4866 127.155 37.9717C127.155 38.4568 126.758 38.8537 126.273 38.8537H117.724C117.406 38.8537 117.106 38.6773 116.956 38.4039L114.866 34.664L109.625 47.0038C109.484 47.3301 109.166 47.5418 108.813 47.5418L108.787 47.5506Z" fill="#147F82"/>
<path d="M243.105 287.765H151.028C144.596 287.765 139.691 282.508 140.124 276.078L155.015 55.6566C155.448 49.2265 161.068 43.9696 167.499 43.9696H259.576C266.008 43.9696 270.913 49.2265 270.481 55.6566L255.589 276.078C255.157 282.508 249.537 287.765 243.105 287.765Z" fill="#263238"/>
<path d="M263.476 133.726H261.156C259.356 133.726 257.988 132.253 258.112 130.462L260.962 88.3096C261.085 86.5103 262.655 85.0461 264.446 85.0461H266.767C268.566 85.0461 269.934 86.5191 269.81 88.3096L266.961 130.462C266.837 132.262 265.267 133.726 263.476 133.726Z" fill="#263238"/>
<path d="M153.666 105.606H151.345C149.881 105.606 148.76 104.407 148.858 102.934L149.89 87.7099C149.987 86.2457 151.275 85.0373 152.739 85.0373H155.06C156.524 85.0373 157.644 86.2369 157.547 87.7099L156.515 102.934C156.418 104.398 155.13 105.606 153.666 105.606Z" fill="#147F82"/>
<path d="M151.831 132.791H149.51C148.046 132.791 146.926 131.591 147.023 130.118L148.055 114.894C148.152 113.43 149.44 112.222 150.904 112.222H153.225C154.689 112.222 155.81 113.421 155.712 114.894L154.68 130.118C154.583 131.582 153.295 132.791 151.831 132.791Z" fill="#147F82"/>
<path d="M241.156 287.765H149.078C142.647 287.765 137.742 282.508 138.174 276.078L153.066 55.6566C153.498 49.2265 159.118 43.9696 165.549 43.9696H257.627C264.058 43.9696 268.963 49.2265 268.531 55.6566L253.639 276.078C253.207 282.508 247.587 287.765 241.156 287.765Z" fill="#147F82"/>
<path opacity="0.3" d="M139.144 273.643L153.683 58.4703H267.543L253.004 273.643H139.144Z" fill="white"/>
<path opacity="0.1" d="M184.094 273.643L224.729 58.4703H250.234L209.599 273.643H184.094Z" fill="white"/>
<path opacity="0.1" d="M164.835 273.643L205.461 58.4703H218.385L177.75 273.643H164.835Z" fill="white"/>
<path d="M200.124 49.3588H222.329C223.123 49.3588 223.723 50.0115 223.67 50.7965C223.617 51.5904 222.92 52.2343 222.135 52.2343H199.929C199.135 52.2343 198.536 51.5816 198.588 50.7965C198.641 50.0027 199.338 49.3588 200.124 49.3588Z" fill="white"/>
<path d="M195.501 308.969L187.719 309.719L184.914 291.76L192.695 291.02L195.501 308.969Z" fill="#FFB573"/>
<path d="M186.828 305.917L194.971 303.377C195.28 303.28 195.58 303.421 195.695 303.712L198.359 310.186C198.633 310.857 198.227 311.703 197.521 311.906C194.574 312.771 191.778 313 188.222 314.526C184.067 316.308 182.32 318.654 177.856 318.654C174.645 318.654 173.93 315.717 175.28 315.311C181.438 313.441 180.644 311.906 185.135 307.09C185.62 306.57 186.184 306.12 186.828 305.926V305.917Z" fill="#263238"/>
<path opacity="0.2" d="M184.914 291.769L186.361 301.022L194.151 300.272L192.704 291.02L184.914 291.769Z" fill="black"/>
<path d="M190.543 64.9533C180.335 63.7537 170.181 64.5563 159.991 66.5321C156.533 67.2025 153.851 70.0514 153.454 73.5531C152.351 83.3085 151.09 105.174 156.012 137.792L197.724 134.281C197.812 128.363 193.595 101.399 197.08 73.412C197.6 69.1959 194.707 65.4384 190.551 64.9533H190.543Z" fill="white"/>
<path d="M166.255 73.315L167.755 76.3051C167.905 76.605 168.205 76.799 168.54 76.8167L170.154 76.8961C170.445 76.9137 170.728 76.8255 170.957 76.6491L173.736 74.5763L170.295 72.0801L166.255 73.3062V73.315Z" fill="#263238"/>
<path d="M170.199 76.0493C168.999 75.5994 168.319 75.8993 168.319 75.8993C167.005 80.53 165.567 93.8223 165.417 99.6967C169.405 111.304 170.701 112.486 170.701 112.486L172.73 98.5059C172.73 98.5059 170.463 84.2169 170.199 76.0493Z" fill="#263238"/>
<path d="M181.712 44.8428C180.759 50.5937 179.947 61.1075 184.067 64.8209C181.05 67.9963 177.08 71.6655 170.287 72.0889C163.494 72.5035 164.543 67.8022 166.264 65.2884C172.607 63.5949 172.298 58.8672 171.054 54.457L181.703 44.8516L181.712 44.8428Z" fill="#FFB573"/>
<path d="M185.805 64.3182C185.276 64.08 184.693 63.9213 184.305 63.8331C184.049 63.7713 183.785 63.8772 183.652 64.1065C182.991 65.2179 180.997 70.1837 170.287 72.0978C172.042 73.1386 174.389 76.3668 175.404 77.9192C178.615 76.2522 186.97 71.2687 186.167 64.821C186.131 64.6093 185.999 64.4152 185.805 64.327V64.3182Z" fill="#F5F5F5"/>
<path d="M166.334 65.5442C166.423 65.1032 166.043 64.7239 165.611 64.8033C165.17 64.8915 164.729 65.0326 164.517 65.1032C164.429 65.1297 164.367 65.1738 164.288 65.2355C163.467 65.9941 158.994 72.4417 163.185 77.6722C164.12 76.2521 167.111 73.0327 170.295 72.0889C167.287 70.7218 165.796 68.1991 166.334 65.553V65.5442Z" fill="#F5F5F5"/>
<path opacity="0.2" d="M177.371 48.7679L171.072 54.4482C171.372 55.489 171.61 56.5563 171.716 57.5883C174.142 57.1737 177.415 54.4129 177.6 51.855C177.689 50.5761 177.6 49.3588 177.38 48.7679H177.371Z" fill="black"/>
<path d="M168.955 27.4666C163.52 29.5923 163.167 34.0555 163.705 38.9419C164.244 43.8284 169.51 40.5914 170.684 37.5483C171.866 34.5053 176.48 24.5295 168.955 27.4666Z" fill="#263238"/>
<path d="M186.29 37.1955C184.782 44.8781 184.288 49.4382 179.885 52.9752C173.269 58.2938 164.288 53.6984 163.494 45.7689C162.779 38.6332 165.364 27.2726 173.277 25.0322C181.068 22.8271 187.799 29.5041 186.29 37.1867V37.1955Z" fill="#FFB573"/>
<path d="M185.973 43.555C179.506 43.899 180.873 40.2209 182.056 38.1129C183.229 36.0048 180.829 32.5296 182.4 30.7126C179.603 31.8239 176.674 30.9066 172.942 28.3134C170.049 26.2935 166.423 34.373 162.894 30.3245C159.559 26.5052 162.655 20.7455 170.666 19.8106C178.668 18.8844 180.132 24.5559 185.39 24.0532C190.648 23.5504 188.822 27.8724 187.79 28.7544C192.201 29.0455 194.601 33.2616 185.973 43.555Z" fill="#263238"/>
<path d="M186.802 29.2925C186.802 29.2925 190.11 27.696 190.163 23.6562C191.875 26.7169 191.689 30.1921 186.802 29.2925Z" fill="#263238"/>
<path d="M170.004 45.3985C172.386 45.7778 173.974 44.5077 174.045 44.4459C174.124 44.3842 174.142 44.2607 174.071 44.1813C174.001 44.1019 173.895 44.0931 173.807 44.1548C173.789 44.1725 171.945 45.6455 169.316 44.8516C169.219 44.8252 169.113 44.8781 169.078 44.9751C169.043 45.0722 169.096 45.178 169.193 45.2045C169.466 45.2838 169.731 45.3456 169.996 45.3897L170.004 45.3985Z" fill="#263238"/>
<path d="M187.852 45.8924C186.555 47.5771 184.623 48.5209 182.92 48.7326C180.344 49.0589 179.497 46.6686 180.573 44.4371C181.544 42.426 184.058 39.8328 186.458 40.5384C188.831 41.2264 189.325 43.9696 187.852 45.8924Z" fill="#FFB573"/>
<path d="M185.302 212.933C185.611 189.903 188.549 135.058 188.549 135.058L156.03 137.801C156.03 137.801 162.497 194.331 166.405 217.828C170.463 242.26 182.911 299.469 182.911 299.469L196.109 298.349C196.109 298.349 191.31 230.75 185.302 212.95V212.933Z" fill="#263238"/>
<path d="M182.117 299.831L197.812 298.499L197.195 293.436L180.847 294.53L182.117 299.831Z" fill="#147F82"/>
<path d="M174.698 37.6542C174.61 38.2805 174.213 38.7568 173.807 38.7127C173.401 38.6685 173.136 38.1217 173.224 37.4866C173.313 36.8516 173.71 36.3841 174.116 36.4282C174.521 36.4723 174.786 37.0191 174.698 37.6542Z" fill="#263238"/>
<path d="M167.499 37.0544C167.411 37.6807 167.014 38.157 166.608 38.1129C166.202 38.0688 165.937 37.5219 166.026 36.8868C166.114 36.2606 166.511 35.7843 166.917 35.8284C167.322 35.8725 167.587 36.4194 167.499 37.0544Z" fill="#263238"/>
<path d="M169.528 37.8306C169.528 37.8306 167.552 40.8737 165.726 42.2761C166.661 43.2552 168.602 42.9905 168.602 42.9905L169.528 37.8394V37.8306Z" fill="#ED893E"/>
<path opacity="0.4" d="M162.929 37.2484C162.797 38.2539 163.829 39.0919 165.214 39.2683C166.599 39.4447 167.905 38.6685 168.037 37.663" fill="#147F82"/>
<path opacity="0.4" d="M171.284 38.1834C171.098 39.1801 172.069 40.0798 173.445 40.3444C174.821 40.609 176.171 39.9122 176.356 38.9155" fill="#147F82"/>
<path d="M173.992 40.5825C173.833 40.5825 173.674 40.5737 173.516 40.5561C172.801 40.4679 172.148 40.1768 171.689 39.7358C171.204 39.2859 170.984 38.7302 171.054 38.1746C170.992 38.1305 170.498 37.9276 169.634 37.8218C168.769 37.7071 168.231 37.7776 168.143 37.857C168.019 38.9243 166.678 39.674 165.179 39.4888C164.464 39.4006 163.811 39.1095 163.352 38.6685C162.867 38.2187 162.647 37.663 162.717 37.1073L163.141 37.1602C163.088 37.5748 163.264 38.007 163.644 38.3598C164.041 38.7303 164.605 38.986 165.232 39.0654C166.493 39.233 167.622 38.642 167.737 37.7512C167.799 37.2661 168.822 37.2925 169.678 37.3984C170.525 37.5042 171.531 37.7424 171.469 38.2275C171.416 38.642 171.592 39.0742 171.972 39.4271C172.369 39.7975 172.933 40.0533 173.56 40.1327C174.186 40.2121 174.795 40.115 175.271 39.8504C175.73 39.6035 176.012 39.233 176.065 38.8185L176.092 38.6068L186.987 40.0092L186.934 40.4326L176.453 39.0831C176.33 39.5505 175.995 39.9475 175.483 40.2209C175.051 40.459 174.53 40.5825 173.983 40.5825H173.992Z" fill="#263238"/>
<path d="M177.468 34.8846C177.53 34.8846 177.591 34.8669 177.653 34.8317C177.83 34.7258 177.891 34.4965 177.794 34.3201C176.789 32.5472 175.086 32.459 175.015 32.459C174.812 32.459 174.636 32.6089 174.627 32.8118C174.618 33.0147 174.768 33.1911 174.971 33.1999C175.024 33.1999 176.356 33.2881 177.15 34.6994C177.221 34.8228 177.344 34.8846 177.477 34.8846H177.468Z" fill="#263238"/>
<path d="M165.17 33.8879C165.284 33.8967 165.408 33.8526 165.496 33.7468C166.546 32.4678 167.869 32.5649 167.931 32.5737C168.134 32.5913 168.319 32.4414 168.337 32.2385C168.363 32.0356 168.222 31.8504 168.019 31.8328C167.949 31.8328 166.255 31.674 164.932 33.2793C164.799 33.4381 164.817 33.6762 164.976 33.7997C165.037 33.8438 165.099 33.8703 165.17 33.8791V33.8879Z" fill="#263238"/>
<path d="M212.395 209.219C205.646 174.538 204.138 147.415 197.724 134.281L166.22 137.792C166.22 137.792 184.984 189.47 194.151 211.53C203.67 234.463 222.461 273.643 222.461 273.643H238.2C238.2 273.643 223.511 225.017 212.395 209.219Z" fill="#263238"/>
<path d="M112.536 77.928L109.158 75.7759C108.011 75.0438 106.493 75.2202 105.576 76.1904L103.264 78.6249C102.214 79.7362 102.32 81.4738 103.494 82.4794L105.143 83.8906C106.573 85.1078 108.249 86.0163 110.057 86.5544L115.042 88.0274L118.315 84.5169C119.285 80.8211 112.545 77.9369 112.545 77.9369L112.536 77.928Z" fill="#FFB573"/>
<path d="M162.938 76.2874C161.703 79.304 160.494 82.1089 159.18 84.9755C157.865 87.8245 156.524 90.6647 155.06 93.4784C153.595 96.3009 152.016 99.0881 150.234 101.893C149.334 103.295 148.372 104.689 147.27 106.083C146.149 107.476 144.932 108.888 143.211 110.29C142.338 110.987 141.323 111.692 139.956 112.301C139.594 112.451 139.241 112.592 138.836 112.707L138.218 112.874C137.989 112.936 137.592 113.007 137.274 113.042C135.968 113.192 134.918 113.024 134.063 112.804C132.36 112.345 131.328 111.71 130.375 111.128C129.44 110.537 128.672 109.937 127.949 109.337C125.135 106.938 123.017 104.513 120.935 102.034C118.88 99.5644 116.939 97.0859 115.077 94.5633C113.198 92.0318 111.416 89.5445 109.59 86.8895L119.347 80.5918C122.4 85.5047 125.893 90.4353 129.546 94.8367C131.381 97.0065 133.33 99.1234 135.165 100.649C135.615 101.02 136.057 101.346 136.409 101.558C136.736 101.778 137.062 101.867 136.842 101.787C136.718 101.752 136.427 101.681 135.88 101.734C135.757 101.734 135.545 101.787 135.501 101.805C135.474 101.805 135.457 101.805 135.43 101.822C135.386 101.84 135.386 101.822 135.377 101.84C135.395 101.822 135.651 101.672 135.951 101.408C136.577 100.879 137.371 99.9878 138.121 98.9911C138.88 97.9856 139.621 96.8654 140.335 95.6923C141.782 93.3372 143.079 90.7705 144.323 88.1597C145.558 85.5312 146.749 82.8498 147.834 80.1155C148.91 77.3988 149.987 74.5763 150.878 71.8949L162.947 76.3051L162.938 76.2874Z" fill="#147F82"/>
<g opacity="0.6">
<path d="M162.938 76.2874C161.703 79.304 160.494 82.1089 159.18 84.9755C157.865 87.8245 156.524 90.6647 155.06 93.4784C153.595 96.3009 152.016 99.0881 150.234 101.893C149.334 103.295 148.372 104.689 147.27 106.083C146.149 107.476 144.932 108.888 143.211 110.29C142.338 110.987 141.323 111.692 139.956 112.301C139.594 112.451 139.241 112.592 138.836 112.707L138.218 112.874C137.989 112.936 137.592 113.007 137.274 113.042C135.968 113.192 134.918 113.024 134.063 112.804C132.36 112.345 131.328 111.71 130.375 111.128C129.44 110.537 128.672 109.937 127.949 109.337C125.135 106.938 123.017 104.513 120.935 102.034C118.88 99.5644 116.939 97.0859 115.077 94.5633C113.198 92.0318 111.416 89.5445 109.59 86.8895L119.347 80.5918C122.4 85.5047 125.893 90.4353 129.546 94.8367C131.381 97.0065 133.33 99.1234 135.165 100.649C135.615 101.02 136.057 101.346 136.409 101.558C136.736 101.778 137.062 101.867 136.842 101.787C136.718 101.752 136.427 101.681 135.88 101.734C135.757 101.734 135.545 101.787 135.501 101.805C135.474 101.805 135.457 101.805 135.43 101.822C135.386 101.84 135.386 101.822 135.377 101.84C135.395 101.822 135.651 101.672 135.951 101.408C136.577 100.879 137.371 99.9878 138.121 98.9911C138.88 97.9856 139.621 96.8654 140.335 95.6923C141.782 93.3372 143.079 90.7705 144.323 88.1597C145.558 85.5312 146.749 82.8498 147.834 80.1155C148.91 77.3988 149.987 74.5763 150.878 71.8949L162.947 76.3051L162.938 76.2874Z" fill="white"/>
</g>
<path d="M186.043 62.7483C182.735 68.8785 170.957 92.4465 169.528 106.965C164.314 93.7696 165.452 64.4683 165.452 64.4683C162.885 64.5388 158.183 65.6767 154.618 67.0703C152.316 67.97 150.728 70.1751 150.543 72.636C150.004 79.7893 149.255 96.8302 151.972 118.034C155.633 146.524 159.056 190.82 159.056 190.82C159.056 190.82 188.214 189.603 210.71 184.858C207.966 163.08 198.58 126.581 198.491 116.808C198.386 104.231 198.677 79.6393 199.074 69.3724C199.188 66.3382 197.142 63.7362 194.204 63.1364C190.163 62.3073 186.034 62.7395 186.034 62.7395L186.043 62.7483Z" fill="#147F82"/>
<path opacity="0.7" d="M186.043 62.7481C182.735 68.8783 170.957 92.4463 169.528 106.965C164.314 93.7694 165.452 64.4681 165.452 64.4681C162.885 64.5387 158.183 65.6765 154.618 67.0701C152.316 67.9698 150.728 70.1749 150.543 72.6358C150.004 79.7891 149.255 96.8301 151.972 118.034C155.633 146.524 159.056 190.82 159.056 190.82C159.056 190.82 188.214 189.603 210.71 184.857C207.966 163.08 198.58 126.581 198.491 116.808C198.386 104.23 198.677 79.6303 199.074 69.3634C199.188 66.435 197.3 63.8154 194.477 63.1892C190.357 62.2807 186.034 62.7393 186.034 62.7393L186.043 62.7481Z" fill="white"/>
<path d="M179.171 186.101C174.107 158.167 170.093 117.187 169.766 112.248L170.225 112.213C170.551 117.143 174.566 158.105 179.629 186.013L179.18 186.092L179.171 186.101Z" fill="white"/>
<path d="M176.648 136.407H149.766C148.708 136.407 147.667 135.543 147.437 134.493L138.438 92.711C138.209 91.6525 138.888 90.7969 139.947 90.7969H166.828C167.887 90.7969 168.928 91.6613 169.157 92.711L178.156 134.493C178.386 135.552 177.706 136.407 176.648 136.407Z" fill="white"/>
<path d="M175.809 136.795H148.478C147.402 136.795 146.343 135.922 146.105 134.846L136.956 92.367C136.727 91.2909 137.415 90.4177 138.483 90.4177H165.814C166.89 90.4177 167.949 91.2909 168.187 92.367L177.336 134.846C177.565 135.922 176.877 136.795 175.809 136.795Z" fill="#147F82"/>
<path d="M178.941 112.786L172.139 112.53C171.319 112.504 170.507 112.645 169.749 112.945L166.237 114.356C164.799 114.938 164.146 116.552 164.79 117.937L166.202 120.98C166.767 122.189 168.143 122.841 169.466 122.515L173.357 121.554C173.357 121.554 180.662 120.971 180.926 117.152L178.941 112.786Z" fill="#FFB573"/>
<path d="M197.724 66.5233C199.409 69.1341 200.953 71.5862 202.47 74.1793C203.988 76.7461 205.479 79.3393 206.881 82.0295C208.275 84.7197 209.616 87.4716 210.825 90.4441C211.416 91.9436 211.972 93.4871 212.43 95.1983C212.872 96.9271 213.295 98.7529 213.207 101.258V101.487L213.189 101.602C213.189 101.628 213.189 101.681 213.172 101.778C213.136 102.096 213.092 102.413 213.022 102.731C212.951 103.013 212.88 103.295 212.792 103.569C212.704 103.842 212.607 104.054 212.51 104.301C212.113 105.201 211.645 105.906 211.222 106.435C210.348 107.547 209.546 108.226 208.778 108.87C207.243 110.105 205.805 110.978 204.385 111.789C201.544 113.377 198.765 114.621 195.977 115.794C193.207 116.976 190.428 118.052 187.64 119.066C184.843 120.107 182.109 121.06 179.206 122.03L175.845 110.916C178.456 110.193 181.191 109.302 183.82 108.402C186.458 107.476 189.078 106.497 191.619 105.448C194.142 104.38 196.621 103.225 198.8 101.972C199.876 101.355 200.9 100.693 201.597 100.111C201.932 99.8378 202.206 99.5379 202.206 99.5026C202.232 99.4762 202.144 99.5556 202.038 99.7937C202.003 99.8643 201.985 99.9172 201.95 100.023C201.914 100.129 201.879 100.235 201.861 100.341C201.826 100.473 201.8 100.614 201.791 100.755C201.791 100.808 201.791 100.808 201.791 100.79V100.773V100.737C201.791 100.349 201.632 99.3262 201.314 98.2766C200.997 97.2093 200.556 96.0539 200.053 94.8808C199.038 92.5257 197.777 90.1266 196.401 87.7627C195.024 85.3989 193.569 83.035 192.016 80.7241C190.472 78.4308 188.84 76.0757 187.217 73.9588L197.689 66.5233H197.724Z" fill="#147F82"/>
<g opacity="0.7">
<path d="M197.724 66.5233C199.409 69.1341 200.953 71.5862 202.47 74.1793C203.988 76.7461 205.479 79.3393 206.881 82.0295C208.275 84.7197 209.616 87.4716 210.825 90.4441C211.416 91.9436 211.972 93.4871 212.43 95.1983C212.872 96.9271 213.295 98.7529 213.207 101.258V101.487L213.189 101.602C213.189 101.628 213.189 101.681 213.172 101.778C213.136 102.096 213.092 102.413 213.022 102.731C212.951 103.013 212.88 103.295 212.792 103.569C212.704 103.842 212.607 104.054 212.51 104.301C212.113 105.201 211.645 105.906 211.222 106.435C210.348 107.547 209.546 108.226 208.778 108.87C207.243 110.105 205.805 110.978 204.385 111.789C201.544 113.377 198.765 114.621 195.977 115.794C193.207 116.976 190.428 118.052 187.64 119.066C184.843 120.107 182.109 121.06 179.206 122.03L175.845 110.916C178.456 110.193 181.191 109.302 183.82 108.402C186.458 107.476 189.078 106.497 191.619 105.448C194.142 104.38 196.621 103.225 198.8 101.972C199.876 101.355 200.9 100.693 201.597 100.111C201.932 99.8378 202.206 99.5379 202.206 99.5026C202.232 99.4762 202.144 99.5556 202.038 99.7937C202.003 99.8643 201.985 99.9172 201.95 100.023C201.914 100.129 201.879 100.235 201.861 100.341C201.826 100.473 201.8 100.614 201.791 100.755C201.791 100.808 201.791 100.808 201.791 100.79V100.773V100.737C201.791 100.349 201.632 99.3262 201.314 98.2766C200.997 97.2093 200.556 96.0539 200.053 94.8808C199.038 92.5257 197.777 90.1266 196.401 87.7627C195.024 85.3989 193.569 83.035 192.016 80.7241C190.472 78.4308 188.84 76.0757 187.217 73.9588L197.689 66.5233H197.724Z" fill="white"/>
</g>
<path d="M188.796 97.13C188.681 97.13 188.566 97.077 188.496 96.9712C188.39 96.8124 188.443 96.5919 188.602 96.4861L189.978 95.6129C192.616 93.937 193.93 90.8675 193.33 87.798L190.56 73.7648C190.022 71.0569 187.825 70.0161 186.096 69.9368C184.367 69.8662 182.091 70.7218 181.332 73.3767L177.406 87.1277C176.551 90.1354 177.6 93.3019 180.088 95.1895L181.385 96.1774C181.535 96.292 181.57 96.5125 181.456 96.6713C181.341 96.8213 181.12 96.8565 180.962 96.7419L179.665 95.754C176.939 93.6812 175.792 90.2236 176.727 86.9336L180.653 73.1826C181.367 70.6777 183.52 69.1429 186.123 69.2399C188.725 69.3458 190.737 71.0746 191.24 73.6325L194.01 87.6657C194.671 91.0174 193.233 94.3692 190.348 96.2038L188.972 97.077C188.91 97.1123 188.849 97.13 188.787 97.13H188.796Z" fill="#263238"/>
<path d="M190.913 74.047H190.895L180.988 73.6325C180.794 73.6325 180.644 73.4649 180.653 73.2708C180.653 73.0768 180.829 72.9533 181.015 72.9357L190.922 73.3502C191.116 73.3502 191.266 73.5178 191.257 73.7119C191.257 73.8971 191.098 74.047 190.904 74.047H190.913Z" fill="#263238"/>
<path d="M186.096 69.9456C185.911 69.9456 185.752 69.7956 185.743 69.6016C185.699 67.8728 185.187 64.7768 183.538 64.0977C183.361 64.0271 183.273 63.8154 183.344 63.639C183.414 63.4626 183.617 63.3744 183.802 63.445C186.246 64.4505 186.431 69.0547 186.44 69.5751C186.44 69.7692 186.29 69.9279 186.096 69.9367V69.9456Z" fill="#263238"/>
<path d="M155.792 81.9325C155.792 81.9325 155.748 81.9325 155.721 81.9325C155.536 81.8972 155.412 81.7119 155.448 81.5179C156.612 75.7229 161.429 66.5674 165.673 63.8948C165.84 63.7889 166.052 63.8419 166.158 64.0006C166.264 64.1682 166.211 64.3799 166.052 64.4858C161.95 67.0701 157.274 75.9963 156.145 81.659C156.109 81.8266 155.968 81.9413 155.801 81.9413L155.792 81.9325Z" fill="#263238"/>
<path d="M158.686 82.841C158.139 84.2434 156.939 85.0902 156.012 84.7197C155.086 84.3581 154.786 82.9204 155.333 81.5179C155.88 80.1155 157.08 79.2687 158.006 79.6392C158.933 80.0008 159.232 81.4385 158.686 82.841Z" fill="white"/>
<path d="M181.976 96.4949C181.95 97.1564 181.57 97.6768 181.138 97.6592C180.706 97.6415 180.371 97.0947 180.397 96.4332C180.423 95.7716 180.803 95.2512 181.235 95.2689C181.667 95.2865 182.003 95.8334 181.976 96.4949Z" fill="white"/>
<path d="M189.581 96.8124C189.554 97.4739 189.175 97.9943 188.743 97.9767C188.31 97.9591 187.975 97.4122 188.001 96.7507C188.028 96.0891 188.407 95.5687 188.84 95.5864C189.272 95.604 189.607 96.1509 189.581 96.8124Z" fill="white"/>
<path d="M339.188 84.5873L338.306 84.5256C338.57 80.6358 337.282 76.9577 334.68 74.1793C332.086 71.4097 328.522 69.875 324.64 69.875V68.9929C328.769 68.9929 332.563 70.6159 335.324 73.5707C338.094 76.5343 339.461 80.4418 339.188 84.5785V84.5873Z" fill="#147F82"/>
<path d="M338.048 88.5776L337.563 95.8647L338.443 95.9233L338.929 88.6362L338.048 88.5776Z" fill="#147F82"/>
<path d="M324.64 72.0889H263.802C257.044 72.0889 251.133 77.6192 250.675 84.3845L250.119 92.5786C249.66 99.3438 254.821 104.874 261.579 104.874H322.417L334.221 112.16L336.1 84.3845C336.559 77.6192 331.398 72.0889 324.64 72.0889Z" fill="#147F82"/>
<path d="M321.552 83.8199H265.17V85.8663H321.552V83.8199Z" fill="white"/>
<path d="M321.058 91.088H279.197V93.1343H321.058V91.088Z" fill="white"/>
<path d="M233.065 115.926H295.28C302.196 115.926 307.472 121.58 307.004 128.495L306.44 136.875C305.972 143.79 299.929 149.444 293.021 149.444H230.807L217.732 156.897L219.656 128.495C220.123 121.58 226.166 115.926 233.074 115.926H233.065Z" fill="white"/>
<path opacity="0.15" d="M233.065 115.926H295.28C302.196 115.926 307.472 121.58 307.004 128.495L306.44 136.875C305.972 143.79 299.929 149.444 293.021 149.444H230.807L217.732 156.897L219.656 128.495C220.123 121.58 226.166 115.926 233.074 115.926H233.065Z" fill="#147F82"/>
<path opacity="0.5" d="M292.121 127.922H234.459V130.021H292.121V127.922Z" fill="#147F82"/>
<path opacity="0.5" d="M256.744 135.349H233.956V137.448H256.744V135.349Z" fill="#147F82"/>
<path opacity="0.5" d="M276.885 135.349H262.329V137.448H276.885V135.349Z" fill="#147F82"/>
</g>
<defs>
<filter id="filter0_f_193_43" x="16.9459" y="296.687" width="366.108" height="43.9694" filterUnits="userSpaceOnUse" color-interpolation-filters="sRGB">
<feFlood flood-opacity="0" result="BackgroundImageFix"/>
<feBlend mode="normal" in="SourceGraphic" in2="BackgroundImageFix" result="shape"/>
<feGaussianBlur stdDeviation="6" result="effect1_foregroundBlur_193_43"/>
</filter>
<clipPath id="clip0_193_43">
<rect width="397" height="329" fill="white" transform="translate(0.5)"/>
</clipPath>
</defs>
</svg>
