<svg width="193" height="42" viewBox="0 0 193 42" fill="none" xmlns="http://www.w3.org/2000/svg">
<path d="M57.5522 6.568C58.9442 6.568 60.1842 6.76 61.2722 7.144C62.3762 7.512 63.2402 7.976 63.8642 8.536C64.5042 9.096 65.0242 9.744 65.4242 10.48C65.8402 11.2 66.1122 11.872 66.2402 12.496C66.3842 13.104 66.4562 13.704 66.4562 14.296C66.4562 14.872 66.3842 15.472 66.2402 16.096C66.0962 16.704 65.8082 17.376 65.3762 18.112C64.9602 18.832 64.4322 19.472 63.7922 20.032C63.1522 20.592 62.2802 21.064 61.1762 21.448C60.0722 21.816 58.8242 22 57.4322 22H53.0402V6.568H57.5522ZM57.4322 21.448C59.2242 21.448 60.6322 20.784 61.6562 19.456C62.6802 18.128 63.1922 16.408 63.1922 14.296C63.1922 12.088 62.6802 10.344 61.6562 9.064C60.6482 7.768 59.2802 7.12 57.5522 7.12H56.1362V21.448H57.4322ZM67.8996 11.704H70.9956V13.768C71.0116 13.704 71.0276 13.632 71.0436 13.552C71.0756 13.456 71.1396 13.288 71.2356 13.048C71.3476 12.792 71.4756 12.568 71.6196 12.376C71.7796 12.184 71.9956 12 72.2676 11.824C72.5556 11.648 72.8756 11.544 73.2276 11.512C73.8836 11.448 74.4436 11.48 74.9076 11.608C75.3876 11.72 75.7396 11.88 75.9636 12.088C76.1876 12.296 76.3556 12.504 76.4676 12.712C76.5956 12.92 76.6676 13.104 76.6836 13.264L76.7076 13.504H73.5396C73.5396 13.424 73.5236 13.32 73.4916 13.192C73.4756 13.064 73.3796 12.904 73.2036 12.712C73.0276 12.52 72.7876 12.456 72.4836 12.52C72.0196 12.616 71.6516 13.176 71.3796 14.2C71.1236 15.208 70.9956 16.512 70.9956 18.112V22H67.8996V11.704ZM94.1646 6.568H94.7166V22H93.0366L83.1006 8.2C83.0846 8.264 83.0766 8.36 83.0766 8.488V22H82.5246V6.568H85.1406L94.1646 19.12V6.568ZM98.9916 22.288C98.0956 22.288 97.3596 22.08 96.7836 21.664C96.2076 21.232 95.9196 20.592 95.9196 19.744C95.9196 19.04 96.1436 18.408 96.5916 17.848C97.0396 17.272 97.5836 16.832 98.2236 16.528C98.8636 16.208 99.5036 15.944 100.144 15.736C100.784 15.512 101.328 15.36 101.776 15.28L102.448 15.184C102.448 13.856 102.392 12.984 102.28 12.568C102.168 12.152 101.848 11.944 101.32 11.944C100.952 11.944 100.664 12.08 100.456 12.352C100.248 12.608 100.136 12.864 100.12 13.12L100.072 13.504H96.9036C96.9196 13.44 96.9436 13.368 96.9756 13.288C97.0236 13.192 97.1436 13.024 97.3356 12.784C97.5276 12.544 97.7596 12.336 98.0316 12.16C98.3036 11.968 98.7036 11.8 99.2316 11.656C99.7596 11.496 100.352 11.416 101.008 11.416C102.832 11.416 104.04 11.68 104.632 12.208C105.24 12.736 105.544 13.576 105.544 14.728V22H102.448V20.824C102.336 20.936 102.168 21.072 101.944 21.232C101.736 21.392 101.328 21.608 100.72 21.88C100.128 22.152 99.5516 22.288 98.9916 22.288ZM102.448 15.76C102.368 15.792 102.248 15.84 102.088 15.904C101.944 15.952 101.688 16.088 101.32 16.312C100.952 16.52 100.624 16.752 100.336 17.008C100.048 17.264 99.7836 17.616 99.5436 18.064C99.3196 18.512 99.2076 18.992 99.2076 19.504C99.2076 20.144 99.4076 20.584 99.8076 20.824C100.224 21.048 100.68 21.096 101.176 20.968C101.688 20.824 102.112 20.568 102.448 20.2V15.76ZM121.144 11.416C122.12 11.416 122.92 11.752 123.544 12.424C124.184 13.08 124.504 14.072 124.504 15.4V22H121.408V15.136C121.408 14.272 121.08 13.672 120.424 13.336C119.784 12.984 119.136 12.976 118.48 13.312C117.84 13.648 117.512 14.216 117.496 15.016V22H114.4V15.376C114.4 14.496 114.072 13.856 113.416 13.456C112.776 13.056 112.128 13.016 111.472 13.336C110.816 13.656 110.488 14.256 110.488 15.136V22H107.392V11.704H110.488V13.576C110.776 12.968 111.232 12.456 111.856 12.04C112.496 11.624 113.176 11.416 113.896 11.416C115.64 11.416 116.76 12.136 117.256 13.576C118.04 12.136 119.336 11.416 121.144 11.416ZM126.353 11.704H129.449V13.768C129.465 13.704 129.481 13.632 129.497 13.552C129.529 13.456 129.593 13.288 129.689 13.048C129.801 12.792 129.929 12.568 130.073 12.376C130.233 12.184 130.449 12 130.721 11.824C131.009 11.648 131.329 11.544 131.681 11.512C132.337 11.448 132.897 11.48 133.361 11.608C133.841 11.72 134.193 11.88 134.417 12.088C134.641 12.296 134.809 12.504 134.921 12.712C135.049 12.92 135.121 13.104 135.137 13.264L135.161 13.504H131.993C131.993 13.424 131.977 13.32 131.945 13.192C131.929 13.064 131.833 12.904 131.657 12.712C131.481 12.52 131.241 12.456 130.937 12.52C130.473 12.616 130.105 13.176 129.833 14.2C129.577 15.208 129.449 16.512 129.449 18.112V22H126.353V11.704ZM138.296 22.288C137.4 22.288 136.664 22.08 136.088 21.664C135.512 21.232 135.224 20.592 135.224 19.744C135.224 19.04 135.448 18.408 135.896 17.848C136.344 17.272 136.888 16.832 137.528 16.528C138.168 16.208 138.808 15.944 139.448 15.736C140.088 15.512 140.632 15.36 141.08 15.28L141.752 15.184C141.752 13.856 141.696 12.984 141.584 12.568C141.472 12.152 141.152 11.944 140.624 11.944C140.256 11.944 139.968 12.08 139.76 12.352C139.552 12.608 139.44 12.864 139.424 13.12L139.376 13.504H136.208C136.224 13.44 136.248 13.368 136.28 13.288C136.328 13.192 136.448 13.024 136.64 12.784C136.832 12.544 137.064 12.336 137.336 12.16C137.608 11.968 138.008 11.8 138.536 11.656C139.064 11.496 139.656 11.416 140.312 11.416C142.136 11.416 143.344 11.68 143.936 12.208C144.544 12.736 144.848 13.576 144.848 14.728V22H141.752V20.824C141.64 20.936 141.472 21.072 141.248 21.232C141.04 21.392 140.632 21.608 140.024 21.88C139.432 22.152 138.856 22.288 138.296 22.288ZM141.752 15.76C141.672 15.792 141.552 15.84 141.392 15.904C141.248 15.952 140.992 16.088 140.624 16.312C140.256 16.52 139.928 16.752 139.64 17.008C139.352 17.264 139.088 17.616 138.848 18.064C138.624 18.512 138.512 18.992 138.512 19.504C138.512 20.144 138.712 20.584 139.112 20.824C139.528 21.048 139.984 21.096 140.48 20.968C140.992 20.824 141.416 20.568 141.752 20.2V15.76ZM146.87 12.328H146.102V11.752H146.87V9.136H149.966V11.752H151.67V12.328H149.966V20.032C149.966 20.48 150.006 20.816 150.086 21.04C150.166 21.248 150.334 21.36 150.59 21.376C150.75 21.376 150.894 21.36 151.022 21.328C151.166 21.296 151.262 21.264 151.31 21.232L151.382 21.16L151.502 21.616C151.326 21.76 150.998 21.88 150.518 21.976C150.038 22.072 149.518 22.112 148.958 22.096C148.414 22.08 147.926 21.88 147.494 21.496C147.078 21.096 146.87 20.512 146.87 19.744V12.328ZM160.385 22V15.136C160.385 14.08 160.017 13.384 159.281 13.048C158.641 12.76 158.025 12.88 157.433 13.408C156.777 14 156.449 14.896 156.449 16.096V22H153.353V6.28H156.449V13.576C156.737 12.968 157.201 12.456 157.841 12.04C158.497 11.624 159.185 11.416 159.905 11.416C160.913 11.416 161.761 11.72 162.449 12.328C163.137 12.92 163.481 13.864 163.481 15.16V22H160.385ZM167.921 22.288C167.025 22.288 166.289 22.08 165.713 21.664C165.137 21.232 164.849 20.592 164.849 19.744C164.849 19.04 165.073 18.408 165.521 17.848C165.969 17.272 166.513 16.832 167.153 16.528C167.793 16.208 168.433 15.944 169.073 15.736C169.713 15.512 170.257 15.36 170.705 15.28L171.377 15.184C171.377 13.856 171.321 12.984 171.209 12.568C171.097 12.152 170.777 11.944 170.249 11.944C169.881 11.944 169.593 12.08 169.385 12.352C169.177 12.608 169.065 12.864 169.049 13.12L169.001 13.504H165.833C165.849 13.44 165.873 13.368 165.905 13.288C165.953 13.192 166.073 13.024 166.265 12.784C166.457 12.544 166.689 12.336 166.961 12.16C167.233 11.968 167.633 11.8 168.161 11.656C168.689 11.496 169.281 11.416 169.937 11.416C171.761 11.416 172.969 11.68 173.561 12.208C174.169 12.736 174.473 13.576 174.473 14.728V22H171.377V20.824C171.265 20.936 171.097 21.072 170.873 21.232C170.665 21.392 170.257 21.608 169.649 21.88C169.057 22.152 168.481 22.288 167.921 22.288ZM171.377 15.76C171.297 15.792 171.177 15.84 171.017 15.904C170.873 15.952 170.617 16.088 170.249 16.312C169.881 16.52 169.553 16.752 169.265 17.008C168.977 17.264 168.713 17.616 168.473 18.064C168.249 18.512 168.137 18.992 168.137 19.504C168.137 20.144 168.337 20.584 168.737 20.824C169.153 21.048 169.609 21.096 170.105 20.968C170.617 20.824 171.041 20.568 171.377 20.2V15.76ZM176.237 6.28C177.165 6.424 177.853 6.848 178.301 7.552C178.765 8.256 178.869 8.96 178.613 9.664H178.589C178.381 10.256 177.925 10.552 177.221 10.552C176.837 10.552 176.509 10.424 176.237 10.168C175.981 9.896 175.853 9.568 175.853 9.184C175.853 8.784 175.981 8.464 176.237 8.224C176.493 7.968 176.813 7.84 177.197 7.84C177.277 7.84 177.413 7.856 177.605 7.888C177.557 7.568 177.413 7.272 177.173 7C176.933 6.728 176.621 6.552 176.237 6.472V6.28ZM184.743 21.76C185.335 21.744 185.767 21.528 186.039 21.112C186.327 20.68 186.447 20.216 186.399 19.72C186.351 19.272 186.111 18.88 185.679 18.544C185.247 18.192 184.743 17.896 184.167 17.656C183.591 17.4 183.015 17.144 182.439 16.888C181.863 16.616 181.359 16.272 180.927 15.856C180.511 15.424 180.287 14.928 180.255 14.368C180.191 13.44 180.559 12.72 181.359 12.208C182.159 11.68 183.239 11.416 184.599 11.416C185.255 11.416 185.839 11.488 186.351 11.632C186.863 11.776 187.239 11.952 187.479 12.16C187.735 12.352 187.943 12.552 188.103 12.76C188.263 12.968 188.359 13.144 188.391 13.288L188.439 13.504H185.319C185.303 13.488 185.303 13.44 185.319 13.36C185.335 13.264 185.319 13.144 185.271 13C185.239 12.84 185.191 12.688 185.127 12.544C185.079 12.384 184.975 12.248 184.815 12.136C184.655 12.024 184.463 11.96 184.239 11.944C183.711 11.896 183.319 12.048 183.063 12.4C182.823 12.752 182.719 13.176 182.751 13.672C182.783 14.088 183.007 14.448 183.423 14.752C183.855 15.056 184.359 15.32 184.935 15.544C185.511 15.768 186.087 16 186.663 16.24C187.239 16.48 187.735 16.816 188.151 17.248C188.583 17.664 188.815 18.16 188.847 18.736C188.927 19.92 188.543 20.808 187.695 21.4C186.847 21.992 185.751 22.288 184.407 22.288C183.655 22.288 182.983 22.2 182.391 22.024C181.815 21.848 181.383 21.632 181.095 21.376C180.807 21.12 180.567 20.864 180.375 20.608C180.199 20.352 180.095 20.136 180.063 19.96L179.991 19.696H183.111C183.111 19.76 183.111 19.84 183.111 19.936C183.111 20.016 183.135 20.184 183.183 20.44C183.247 20.68 183.327 20.888 183.423 21.064C183.519 21.24 183.679 21.408 183.903 21.568C184.143 21.712 184.423 21.776 184.743 21.76Z" fill="#147F82"/>
<path d="M55.552 33.88C56.088 33.88 56.456 33.708 56.656 33.364C56.856 33.012 56.896 32.62 56.776 32.188C56.712 31.948 56.564 31.728 56.332 31.528C56.1 31.328 55.836 31.164 55.54 31.036C55.244 30.9 54.924 30.748 54.58 30.58C54.244 30.412 53.928 30.248 53.632 30.088C53.344 29.92 53.092 29.704 52.876 29.44C52.668 29.168 52.54 28.864 52.492 28.528C52.396 27.84 52.652 27.272 53.26 26.824C53.868 26.368 54.612 26.14 55.492 26.14C55.956 26.14 56.364 26.184 56.716 26.272C57.076 26.36 57.344 26.468 57.52 26.596C57.696 26.724 57.836 26.852 57.94 26.98C58.052 27.108 58.12 27.216 58.144 27.304L58.18 27.436H56.596C56.596 27.404 56.592 27.368 56.584 27.328C56.584 27.28 56.564 27.196 56.524 27.076C56.484 26.956 56.424 26.852 56.344 26.764C56.264 26.668 56.132 26.584 55.948 26.512C55.772 26.44 55.56 26.404 55.312 26.404C54.864 26.412 54.488 26.564 54.184 26.86C53.88 27.156 53.776 27.52 53.872 27.952C53.936 28.24 54.136 28.496 54.472 28.72C54.808 28.944 55.188 29.14 55.612 29.308C56.044 29.476 56.468 29.656 56.884 29.848C57.308 30.04 57.664 30.3 57.952 30.628C58.24 30.948 58.384 31.324 58.384 31.756C58.384 33.348 57.38 34.144 55.372 34.144C54.876 34.144 54.428 34.088 54.028 33.976C53.636 33.856 53.336 33.712 53.128 33.544C52.928 33.376 52.76 33.208 52.624 33.04C52.488 32.864 52.4 32.72 52.36 32.608L52.3 32.428H53.884C53.884 32.468 53.888 32.52 53.896 32.584C53.912 32.648 53.956 32.764 54.028 32.932C54.1 33.1 54.188 33.248 54.292 33.376C54.404 33.504 54.568 33.62 54.784 33.724C55.008 33.828 55.264 33.88 55.552 33.88ZM64.1637 34H62.4597L60.6477 31.516V34H59.0997V26.14H60.6477V31L63.2877 28.852H63.8157L61.6677 30.568L64.1637 34ZM66.1653 27.94C65.9973 28.108 65.7973 28.192 65.5653 28.192C65.3333 28.192 65.1293 28.108 64.9533 27.94C64.7853 27.764 64.7013 27.56 64.7013 27.328C64.7013 27.096 64.7853 26.896 64.9533 26.728C65.1293 26.552 65.3333 26.464 65.5653 26.464C65.7973 26.464 65.9973 26.552 66.1653 26.728C66.3413 26.896 66.4293 27.096 66.4293 27.328C66.4293 27.56 66.3413 27.764 66.1653 27.94ZM64.7853 28.852H66.3333L66.3573 34H64.7853V28.852ZM67.3848 28.852H68.9328V29.788C69.0768 29.484 69.3088 29.228 69.6288 29.02C69.9568 28.812 70.3008 28.708 70.6608 28.708C71.1488 28.708 71.5688 28.876 71.9208 29.212C72.2728 29.548 72.4488 30.044 72.4488 30.7V34H70.9008V30.688C70.9008 30.128 70.7128 29.744 70.3368 29.536C70.0088 29.36 69.7008 29.396 69.4128 29.644C69.0928 29.9 68.9328 30.328 68.9328 30.928V34H67.3848V28.852ZM73.8891 33.136H75.1851L73.9251 35.428H73.5531L73.8891 33.136ZM85.2954 34H83.7474V30.34H80.1594V34H78.6114V26.284H80.1594V30.064H83.7474V26.284H85.2954V34ZM87.4308 34.144C86.9828 34.144 86.6148 34.04 86.3268 33.832C86.0388 33.616 85.8948 33.296 85.8948 32.872C85.8948 32.52 86.0068 32.204 86.2308 31.924C86.4548 31.636 86.7268 31.416 87.0468 31.264C87.3668 31.104 87.6868 30.972 88.0068 30.868C88.3268 30.756 88.5988 30.68 88.8228 30.64L89.1588 30.592C89.1588 29.928 89.1308 29.492 89.0748 29.284C89.0188 29.076 88.8588 28.972 88.5948 28.972C88.4108 28.972 88.2668 29.04 88.1628 29.176C88.0588 29.304 88.0028 29.432 87.9948 29.56L87.9708 29.752H86.3868C86.3948 29.72 86.4068 29.684 86.4228 29.644C86.4468 29.596 86.5068 29.512 86.6028 29.392C86.6988 29.272 86.8148 29.168 86.9508 29.08C87.0868 28.984 87.2868 28.9 87.5508 28.828C87.8148 28.748 88.1108 28.708 88.4388 28.708C89.3508 28.708 89.9548 28.84 90.2508 29.104C90.5548 29.368 90.7068 29.788 90.7068 30.364V34H89.1588V33.412C89.1028 33.468 89.0188 33.536 88.9068 33.616C88.8028 33.696 88.5988 33.804 88.2948 33.94C87.9988 34.076 87.7108 34.144 87.4308 34.144ZM89.1588 30.88C89.1188 30.896 89.0588 30.92 88.9788 30.952C88.9068 30.976 88.7788 31.044 88.5948 31.156C88.4108 31.26 88.2468 31.376 88.1028 31.504C87.9588 31.632 87.8268 31.808 87.7068 32.032C87.5948 32.256 87.5388 32.496 87.5388 32.752C87.5388 33.072 87.6388 33.292 87.8388 33.412C88.0468 33.524 88.2748 33.548 88.5228 33.484C88.7788 33.412 88.9908 33.284 89.1588 33.1V30.88ZM93.0949 27.94C92.9269 28.108 92.7269 28.192 92.4949 28.192C92.2629 28.192 92.0589 28.108 91.8829 27.94C91.7149 27.764 91.6309 27.56 91.6309 27.328C91.6309 27.096 91.7149 26.896 91.8829 26.728C92.0589 26.552 92.2629 26.464 92.4949 26.464C92.7269 26.464 92.9269 26.552 93.0949 26.728C93.2709 26.896 93.3589 27.096 93.3589 27.328C93.3589 27.56 93.2709 27.764 93.0949 27.94ZM91.7149 28.852H93.2629L93.2869 34H91.7149V28.852ZM94.3145 28.852H95.8625V29.884C95.8705 29.852 95.8785 29.816 95.8865 29.776C95.9025 29.728 95.9345 29.644 95.9825 29.524C96.0385 29.396 96.1025 29.284 96.1745 29.188C96.2545 29.092 96.3625 29 96.4985 28.912C96.6425 28.824 96.8025 28.772 96.9785 28.756C97.3065 28.724 97.5865 28.74 97.8185 28.804C98.0585 28.86 98.2345 28.94 98.3465 29.044C98.4585 29.148 98.5425 29.252 98.5985 29.356C98.6625 29.46 98.6985 29.552 98.7065 29.632L98.7185 29.752H97.1345C97.1345 29.712 97.1265 29.66 97.1105 29.596C97.1025 29.532 97.0545 29.452 96.9665 29.356C96.8785 29.26 96.7585 29.228 96.6065 29.26C96.3745 29.308 96.1905 29.588 96.0545 30.1C95.9265 30.604 95.8625 31.256 95.8625 32.056V34H94.3145V28.852ZM102.923 34.144C102.475 34.144 102.107 34.04 101.819 33.832C101.531 33.616 101.387 33.296 101.387 32.872C101.387 32.52 101.499 32.204 101.723 31.924C101.947 31.636 102.219 31.416 102.539 31.264C102.859 31.104 103.179 30.972 103.499 30.868C103.819 30.756 104.091 30.68 104.315 30.64L104.651 30.592C104.651 29.928 104.623 29.492 104.567 29.284C104.511 29.076 104.351 28.972 104.087 28.972C103.903 28.972 103.759 29.04 103.655 29.176C103.551 29.304 103.495 29.432 103.487 29.56L103.463 29.752H101.879C101.887 29.72 101.899 29.684 101.915 29.644C101.939 29.596 101.999 29.512 102.095 29.392C102.191 29.272 102.307 29.168 102.443 29.08C102.579 28.984 102.779 28.9 103.043 28.828C103.307 28.748 103.603 28.708 103.931 28.708C104.843 28.708 105.447 28.84 105.743 29.104C106.047 29.368 106.199 29.788 106.199 30.364V34H104.651V33.412C104.595 33.468 104.511 33.536 104.399 33.616C104.295 33.696 104.091 33.804 103.787 33.94C103.491 34.076 103.203 34.144 102.923 34.144ZM104.651 30.88C104.611 30.896 104.551 30.92 104.471 30.952C104.399 30.976 104.271 31.044 104.087 31.156C103.903 31.26 103.739 31.376 103.595 31.504C103.451 31.632 103.319 31.808 103.199 32.032C103.087 32.256 103.031 32.496 103.031 32.752C103.031 33.072 103.131 33.292 103.331 33.412C103.539 33.524 103.767 33.548 104.015 33.484C104.271 33.412 104.483 33.284 104.651 33.1V30.88ZM107.123 28.852H108.671V29.788C108.815 29.484 109.047 29.228 109.367 29.02C109.695 28.812 110.039 28.708 110.399 28.708C110.887 28.708 111.307 28.876 111.659 29.212C112.011 29.548 112.187 30.044 112.187 30.7V34H110.639V30.688C110.639 30.128 110.451 29.744 110.075 29.536C109.747 29.36 109.439 29.396 109.151 29.644C108.831 29.9 108.671 30.328 108.671 30.928V34H107.123V28.852ZM115.166 34.144C114.47 34.144 113.914 33.908 113.498 33.436C113.082 32.956 112.874 32.32 112.874 31.528C112.874 30.76 113.118 30.1 113.606 29.548C114.094 28.988 114.722 28.708 115.49 28.708C115.866 28.708 116.186 28.756 116.45 28.852C116.714 28.948 116.886 29.044 116.966 29.14L117.086 29.284V26.14H118.634V34H117.086V33.16C117.07 33.184 117.046 33.22 117.014 33.268C116.982 33.308 116.91 33.388 116.798 33.508C116.686 33.62 116.562 33.72 116.426 33.808C116.29 33.888 116.106 33.964 115.874 34.036C115.65 34.108 115.414 34.144 115.166 34.144ZM115.766 29.128C114.974 29.128 114.558 29.856 114.518 31.312C114.502 31.96 114.598 32.5 114.806 32.932C115.014 33.364 115.318 33.58 115.718 33.58C115.99 33.58 116.238 33.492 116.462 33.316C116.694 33.132 116.854 32.952 116.942 32.776L117.086 32.512V31.228C117.086 30.5 116.954 29.968 116.69 29.632C116.426 29.296 116.118 29.128 115.766 29.128ZM121.877 26.284H123.425V33.724H126.713V34H121.877V26.284ZM128.423 34.144C127.975 34.144 127.607 34.04 127.319 33.832C127.031 33.616 126.887 33.296 126.887 32.872C126.887 32.52 126.999 32.204 127.223 31.924C127.447 31.636 127.719 31.416 128.039 31.264C128.359 31.104 128.679 30.972 128.999 30.868C129.319 30.756 129.591 30.68 129.815 30.64L130.151 30.592C130.151 29.928 130.123 29.492 130.067 29.284C130.011 29.076 129.851 28.972 129.587 28.972C129.403 28.972 129.259 29.04 129.155 29.176C129.051 29.304 128.995 29.432 128.987 29.56L128.963 29.752H127.379C127.387 29.72 127.399 29.684 127.415 29.644C127.439 29.596 127.499 29.512 127.595 29.392C127.691 29.272 127.807 29.168 127.943 29.08C128.079 28.984 128.279 28.9 128.543 28.828C128.807 28.748 129.103 28.708 129.431 28.708C130.343 28.708 130.947 28.84 131.243 29.104C131.547 29.368 131.699 29.788 131.699 30.364V34H130.151V33.412C130.095 33.468 130.011 33.536 129.899 33.616C129.795 33.696 129.591 33.804 129.287 33.94C128.991 34.076 128.703 34.144 128.423 34.144ZM130.151 30.88C130.111 30.896 130.051 30.92 129.971 30.952C129.899 30.976 129.771 31.044 129.587 31.156C129.403 31.26 129.239 31.376 129.095 31.504C128.951 31.632 128.819 31.808 128.699 32.032C128.587 32.256 128.531 32.496 128.531 32.752C128.531 33.072 128.631 33.292 128.831 33.412C129.039 33.524 129.267 33.548 129.515 33.484C129.771 33.412 129.983 33.284 130.151 33.1V30.88ZM134.725 33.88C135.021 33.872 135.237 33.764 135.373 33.556C135.517 33.34 135.577 33.108 135.553 32.86C135.529 32.636 135.409 32.44 135.193 32.272C134.977 32.096 134.725 31.948 134.437 31.828C134.149 31.7 133.861 31.572 133.573 31.444C133.285 31.308 133.033 31.136 132.817 30.928C132.609 30.712 132.497 30.464 132.481 30.184C132.449 29.72 132.633 29.36 133.033 29.104C133.433 28.84 133.973 28.708 134.653 28.708C134.981 28.708 135.273 28.744 135.529 28.816C135.785 28.888 135.973 28.976 136.093 29.08C136.221 29.176 136.325 29.276 136.405 29.38C136.485 29.484 136.533 29.572 136.549 29.644L136.573 29.752H135.013C135.005 29.744 135.005 29.72 135.013 29.68C135.021 29.632 135.013 29.572 134.989 29.5C134.973 29.42 134.949 29.344 134.917 29.272C134.893 29.192 134.841 29.124 134.761 29.068C134.681 29.012 134.585 28.98 134.473 28.972C134.209 28.948 134.013 29.024 133.885 29.2C133.765 29.376 133.713 29.588 133.729 29.836C133.745 30.044 133.857 30.224 134.065 30.376C134.281 30.528 134.533 30.66 134.821 30.772C135.109 30.884 135.397 31 135.685 31.12C135.973 31.24 136.221 31.408 136.429 31.624C136.645 31.832 136.761 32.08 136.777 32.368C136.817 32.96 136.625 33.404 136.201 33.7C135.777 33.996 135.229 34.144 134.557 34.144C134.181 34.144 133.845 34.1 133.549 34.012C133.261 33.924 133.045 33.816 132.901 33.688C132.757 33.56 132.637 33.432 132.541 33.304C132.453 33.176 132.401 33.068 132.385 32.98L132.349 32.848H133.909C133.909 32.88 133.909 32.92 133.909 32.968C133.909 33.008 133.921 33.092 133.945 33.22C133.977 33.34 134.017 33.444 134.065 33.532C134.113 33.62 134.193 33.704 134.305 33.784C134.425 33.856 134.565 33.888 134.725 33.88ZM142.493 30.772V31.048H138.833C138.841 31.56 138.913 31.992 139.049 32.344C139.193 32.688 139.373 32.94 139.589 33.1C139.805 33.252 140.041 33.356 140.297 33.412C140.561 33.468 140.817 33.472 141.065 33.424C141.313 33.368 141.533 33.296 141.725 33.208C141.917 33.12 142.061 33.024 142.157 32.92L142.385 33.076C142.369 33.108 142.341 33.148 142.301 33.196C142.269 33.244 142.189 33.328 142.061 33.448C141.933 33.568 141.793 33.676 141.641 33.772C141.489 33.868 141.285 33.952 141.029 34.024C140.773 34.104 140.505 34.144 140.225 34.144C139.817 34.144 139.441 34.096 139.097 34C138.753 33.896 138.437 33.74 138.149 33.532C137.869 33.316 137.649 33.024 137.489 32.656C137.337 32.288 137.265 31.856 137.273 31.36C137.281 30.576 137.549 29.94 138.077 29.452C138.613 28.956 139.249 28.708 139.985 28.708C140.761 28.708 141.373 28.908 141.821 29.308C142.269 29.7 142.493 30.188 142.493 30.772ZM138.833 30.772H140.921C140.921 30.22 140.825 29.784 140.633 29.464C140.449 29.136 140.209 28.972 139.913 28.972C139.625 28.972 139.381 29.14 139.181 29.476C138.981 29.812 138.865 30.244 138.833 30.772ZM143.217 28.852H144.765V29.884C144.773 29.852 144.781 29.816 144.789 29.776C144.805 29.728 144.837 29.644 144.885 29.524C144.941 29.396 145.005 29.284 145.077 29.188C145.157 29.092 145.265 29 145.401 28.912C145.545 28.824 145.705 28.772 145.881 28.756C146.209 28.724 146.489 28.74 146.721 28.804C146.961 28.86 147.137 28.94 147.249 29.044C147.361 29.148 147.445 29.252 147.501 29.356C147.565 29.46 147.601 29.552 147.609 29.632L147.621 29.752H146.037C146.037 29.712 146.029 29.66 146.013 29.596C146.005 29.532 145.957 29.452 145.869 29.356C145.781 29.26 145.661 29.228 145.509 29.26C145.277 29.308 145.093 29.588 144.957 30.1C144.829 30.604 144.765 31.256 144.765 32.056V34H143.217V28.852ZM154.321 26.488C153.737 26.488 153.217 26.836 152.761 27.532C152.313 28.228 152.117 29.144 152.173 30.28C152.221 31.168 152.493 31.92 152.989 32.536C153.493 33.152 154.153 33.46 154.969 33.46C155.889 33.46 156.589 33.24 157.069 32.8L157.393 33.028C156.713 33.772 155.773 34.144 154.573 34.144C153.293 34.144 152.269 33.76 151.501 32.992C150.741 32.216 150.361 31.272 150.361 30.16C150.361 28.856 150.741 27.86 151.501 27.172C152.261 26.484 153.229 26.14 154.405 26.14C154.901 26.14 155.341 26.184 155.725 26.272C156.117 26.36 156.413 26.468 156.613 26.596C156.821 26.724 156.989 26.852 157.117 26.98C157.253 27.108 157.341 27.216 157.381 27.304L157.429 27.436H155.845C155.837 27.412 155.825 27.38 155.809 27.34C155.793 27.292 155.745 27.216 155.665 27.112C155.593 27 155.505 26.904 155.401 26.824C155.297 26.736 155.149 26.66 154.957 26.596C154.765 26.524 154.553 26.488 154.321 26.488ZM158.229 26.14H159.777V34H158.229V26.14ZM162.2 27.94C162.032 28.108 161.832 28.192 161.6 28.192C161.368 28.192 161.164 28.108 160.988 27.94C160.82 27.764 160.736 27.56 160.736 27.328C160.736 27.096 160.82 26.896 160.988 26.728C161.164 26.552 161.368 26.464 161.6 26.464C161.832 26.464 162.032 26.552 162.2 26.728C162.376 26.896 162.464 27.096 162.464 27.328C162.464 27.56 162.376 27.764 162.2 27.94ZM160.82 28.852H162.368L162.392 34H160.82V28.852ZM163.42 28.852H164.968V29.788C165.112 29.484 165.344 29.228 165.664 29.02C165.992 28.812 166.336 28.708 166.696 28.708C167.184 28.708 167.604 28.876 167.956 29.212C168.308 29.548 168.484 30.044 168.484 30.7V34H166.936V30.688C166.936 30.128 166.748 29.744 166.372 29.536C166.044 29.36 165.736 29.396 165.448 29.644C165.128 29.9 164.968 30.328 164.968 30.928V34H163.42V28.852ZM170.872 27.94C170.704 28.108 170.504 28.192 170.272 28.192C170.04 28.192 169.836 28.108 169.66 27.94C169.492 27.764 169.408 27.56 169.408 27.328C169.408 27.096 169.492 26.896 169.66 26.728C169.836 26.552 170.04 26.464 170.272 26.464C170.504 26.464 170.704 26.552 170.872 26.728C171.048 26.896 171.136 27.096 171.136 27.328C171.136 27.56 171.048 27.764 170.872 27.94ZM169.492 28.852H171.04L171.064 34H169.492V28.852ZM174.783 34.144C174.399 34.144 174.035 34.092 173.691 33.988C173.355 33.884 173.047 33.728 172.767 33.52C172.487 33.304 172.263 33.016 172.095 32.656C171.935 32.296 171.855 31.884 171.855 31.42C171.855 30.644 172.115 30 172.635 29.488C173.163 28.968 173.879 28.708 174.783 28.708C175.135 28.708 175.447 28.744 175.719 28.816C175.991 28.888 176.195 28.976 176.331 29.08C176.475 29.176 176.591 29.276 176.679 29.38C176.767 29.484 176.823 29.572 176.847 29.644L176.883 29.752H175.383C175.375 29.696 175.359 29.628 175.335 29.548C175.311 29.46 175.231 29.348 175.095 29.212C174.959 29.076 174.787 29.008 174.579 29.008C174.179 29.008 173.875 29.252 173.667 29.74C173.459 30.22 173.403 30.804 173.499 31.492C173.531 31.708 173.583 31.92 173.655 32.128C173.727 32.336 173.831 32.56 173.967 32.8C174.111 33.032 174.311 33.22 174.567 33.364C174.831 33.508 175.135 33.58 175.479 33.58C175.975 33.58 176.347 33.464 176.595 33.232L176.787 33.364C176.387 33.884 175.719 34.144 174.783 34.144Z" fill="#147F82"/>
<path d="M11.43 30.01V22.74C9.86 22.74 8.34 22.55 6.89 22.78C3.2 23.35 0.59 26.04 0.28 29.9C-0.02 33.73 0.08 37.59 0 41.52C0.37 41.54 0.59 41.55 0.81 41.55C3.61 41.55 6.4 41.56 9.2 41.55C13.79 41.53 17.06 39.09 18.34 34.7C18.78 33.2 19.03 31.67 18.91 30.01H11.43ZM14.47 36.04C13.31 37.67 11.66 38.64 9.72 38.79C7.49 38.96 5.23 38.83 3.03 38.83C3.03 35.71 2.85 32.59 3.09 29.51C3.28 27.09 5.21 25.41 7.57 24.96C7.85 24.91 8.14 24.91 8.52 24.88V32.85H15.55C15.58 34.1 15.14 35.12 14.48 36.04H14.47Z" fill="#147F82"/>
<path d="M26.31 20.14L17.49 5.23001C17.33 4.93001 17.17 4.65001 16.99 4.38001L16.82 4.10001V4.14001C15.24 1.89001 12.78 0.45001 9.75001 0.18001C6.61001 -0.10999 3.43001 0.0500102 0.270014 1.02042e-05C0.230014 1.02042e-05 0.190014 0.0400102 0.140014 0.0600102C0.120014 0.10001 0.090014 0.15001 0.090014 0.19001C0.090014 3.92001 -0.029986 7.66001 0.130014 11.38C0.260014 14.41 1.58001 16.85 4.50001 18.18C6.72001 19.2 9.06001 18.77 11.4 18.86C11.4 16 11.44 13.23 11.37 10.46C11.36 9.83001 11.09 9.16001 10.79 8.59001C10.34 7.74001 9.59001 7.23001 8.48001 7.14001V16.02C5.32001 16.09 2.99001 14.14 2.91001 11.28C2.83001 8.44001 2.89001 5.59001 2.89001 2.62001C4.74001 2.62001 6.53001 2.60001 8.31001 2.62001C10.36 2.66001 12.06 3.48001 13.39 5.04001C14.98 6.91001 15.54 9.15001 15.55 11.53C15.58 16.24 15.55 20.51 15.55 25.23C15.55 25.49 15.55 25.75 15.55 26.04H18.97V22.46L18.94 18.74C18.96 17.24 18.99 15.74 18.94 14.24L26.3 25.75H29.72C29.72 25.46 29.72 25.2 29.72 24.94C29.72 20.23 29.7 16.25 29.72 11.54C29.74 9.16001 30.29 6.92001 31.88 5.05001C33.21 3.49001 34.91 2.67001 36.96 2.63001C38.74 2.60001 40.53 2.63001 42.38 2.63001C42.38 5.60001 42.45 8.45001 42.36 11.29C42.28 14.15 39.94 16.1 36.79 16.03V7.16001C35.68 7.25001 34.93 7.76001 34.48 8.61001C34.18 9.18001 33.92 9.85001 33.9 10.48C33.84 13.25 33.87 16.02 33.87 18.88C36.21 18.78 38.55 19.21 40.77 18.2C43.68 16.86 45.01 14.42 45.14 11.4C45.29 7.68001 45.18 3.94001 45.18 0.21001C45.18 0.17001 45.15 0.12001 45.13 0.0800102C45.09 0.0600102 45.05 0.0200102 45 0.0200102C41.84 0.0600102 38.66 -0.0899898 35.52 0.19001C30.77 0.62001 27.42 3.91001 26.66 8.65001C26.38 10.4 26.39 12.21 26.33 13.99C26.28 15.58 26.31 17.18 26.33 18.78L26.3 20.14H26.31Z" fill="#147F82"/>
<path d="M45.02 29.9C44.72 26.04 42.11 23.35 38.41 22.78C36.96 22.56 35.44 22.74 33.87 22.74V30.01H26.39C26.27 31.67 26.52 33.2 26.96 34.7C28.25 39.09 31.52 41.53 36.1 41.55C38.9 41.56 41.69 41.55 44.49 41.55C44.71 41.55 44.92 41.53 45.3 41.52C45.22 37.59 45.32 33.73 45.02 29.9ZM42.27 38.84C40.07 38.84 37.81 38.97 35.58 38.8C33.64 38.65 32 37.68 30.83 36.05C30.17 35.13 29.73 34.11 29.76 32.86H36.79V24.89C37.17 24.92 37.46 24.91 37.74 24.97C40.1 25.42 42.03 27.1 42.22 29.52C42.46 32.61 42.28 35.73 42.28 38.84H42.27Z" fill="#147F82"/>
</svg>
